# xmcd CD database file
#
# Track frame offsets:
#	150
#	13798
#	26520
#	38209
#	51577
#	65396
#	75811
#	87997
#	99021
#	112975
#	124794
#	136757
#	147373
#	160288
#	170643
#	182090
#	194514
#	206180
#	219023
#	229032
#	242154
#	253094
#	265002
#	275666
#	288138
#
# Disc length: 4010 seconds
#
# Revision: 0
# Processed by: cddbd v1.5.2PL0 Copyright (c) Steve Scherf et al.
# Submitted via: CDex 1.51
#
DISCID=5f0fa819
DTITLE=A - Z Sampler - New Orleans Blues CD 2
DYEAR=2011
DGENRE=Blues
TTITLE0=Roy Brown - Good Rockin' Tonight
TTITLE1=Annie Laurie - Annie's Blues
TTITLE2=Smiley Lewis - Here Comes Smiley
TTITLE3=Chubby (Hip Shakin) Newsom - New Orleans Lover Man
TTITLE4=Dave Bartholomew - Girt Town Blues
TTITLE5=Erline Harris - Never Missed My Baby
TTITLE6=James (Blazer Boy) Locks - New Orleans Women Blues
TTITLE7=Professor Longhair and His Shuffling Hungarians - Mardi Gras In New Orleans
TTITLE8=Tommy Ridgley - Shrewsbury Blues
TTITLE9=Jewel King - 3 x 7 =21
TTITLE10=Fats Domino - The Fat Man
TTITLE11=Larry Darnell - Pack Your Rags And Go
TTITLE12=George Miller and His Mid-Driffs - Bat-Lee Swing
TTITLE13=Archibald - Stack-A Lee Part 1
TTITLE14=Rodney Harris - Blow Your Top
TTITLE15=Alma Mondy - Street Walkin' Daddy
TTITLE16=Eddie Jones and His Playboys - New Arrival
TTITLE17=Ray Lewis - Jealous Blues
TTITLE18=Lloyd Price - Mailman Blues
TTITLE19=Blazer Boy - Joe's Kid Sister
TTITLE20=Papa Lightfoot - PL Blues
TTITLE21=Big Joe Turner - Crawdad Hole
TTITLE22=Boogie Bill Webb - Bad Dog
TTITLE23=Ray Johnson - I'll Never Let You Go
TTITLE24=Ray Charles - I Wonder Who
EXTD=YEAR: 2011
EXTT0=
EXTT1=
EXTT2=
EXTT3=
EXTT4=
EXTT5=
EXTT6=
EXTT7=
EXTT8=
EXTT9=
EXTT10=
EXTT11=
EXTT12=
EXTT13=
EXTT14=
EXTT15=
EXTT16=
EXTT17=
EXTT18=
EXTT19=
EXTT20=
EXTT21=
EXTT22=
EXTT23=
EXTT24=
PLAYORDER=
